<?xml version="1.0" encoding="UTF-8"?>
<!DOCTYPE svg PUBLIC "-//W3C//DTD SVG 1.1//EN" "http://www.w3.org/Graphics/SVG/1.1/DTD/svg11.dtd">
<svg xmlns="http://www.w3.org/2000/svg" version="1.1" width="502px" height="182px" style="shape-rendering:geometricPrecision; text-rendering:geometricPrecision; image-rendering:optimizeQuality; fill-rule:evenodd; clip-rule:evenodd" xmlns:xlink="http://www.w3.org/1999/xlink">
<g><path style="opacity:1" fill="#fefefe" d="M -0.5,-0.5 C 166.833,-0.5 334.167,-0.5 501.5,-0.5C 501.5,60.1667 501.5,120.833 501.5,181.5C 334.167,181.5 166.833,181.5 -0.5,181.5C -0.5,120.833 -0.5,60.1667 -0.5,-0.5 Z"/></g>
<g><path style="opacity:1" fill="#3b4537" d="M 150.5,20.5 C 163.167,20.5 175.833,20.5 188.5,20.5C 188.5,22.5 188.5,24.5 188.5,26.5C 177.833,26.5 167.167,26.5 156.5,26.5C 156.5,34.8333 156.5,43.1667 156.5,51.5C 165.167,51.5 173.833,51.5 182.5,51.5C 182.5,53.5 182.5,55.5 182.5,57.5C 173.833,57.5 165.167,57.5 156.5,57.5C 156.5,65.8333 156.5,74.1667 156.5,82.5C 167.167,82.5 177.833,82.5 188.5,82.5C 188.5,84.5 188.5,86.5 188.5,88.5C 175.833,88.5 163.167,88.5 150.5,88.5C 150.5,65.8333 150.5,43.1667 150.5,20.5 Z"/></g>
<g><path style="opacity:1" fill="#adb2ad" d="M 288.5,20.5 C 288.5,22.8333 288.5,25.1667 288.5,27.5C 290.5,27.5 292.5,27.5 294.5,27.5C 294.5,25.1667 294.5,22.8333 294.5,20.5C 295.473,22.9479 295.806,25.6146 295.5,28.5C 292.833,28.5 290.167,28.5 287.5,28.5C 287.194,25.6146 287.527,22.9479 288.5,20.5 Z"/></g>
<g><path style="opacity:1" fill="#333e2f" d="M 288.5,20.5 C 290.5,20.5 292.5,20.5 294.5,20.5C 294.5,22.8333 294.5,25.1667 294.5,27.5C 292.5,27.5 290.5,27.5 288.5,27.5C 288.5,25.1667 288.5,22.8333 288.5,20.5 Z"/></g>
<g><path style="opacity:1" fill="#3a4336" d="M 198.5,88.5 C 197.849,72.1317 198.515,56.1317 200.5,40.5C 201.504,41.6828 202.338,43.0161 203,44.5C 211.333,36.5 219.667,36.5 228,44.5C 228.667,45.8333 229.333,47.1667 230,48.5C 230.5,61.8292 230.667,75.1625 230.5,88.5C 228.5,88.5 226.5,88.5 224.5,88.5C 224.667,75.4957 224.5,62.4957 224,49.5C 221.925,45.4625 218.592,43.7959 214,44.5C 208.763,44.0656 205.429,46.399 204,51.5C 203.5,63.8288 203.333,76.1622 203.5,88.5C 201.833,88.5 200.167,88.5 198.5,88.5 Z"/></g>
<g><path style="opacity:1" fill="#3b4537" d="M 253.5,38.5 C 260.291,37.3987 265.957,39.3987 270.5,44.5C 271.833,42.8333 273.167,41.1667 274.5,39.5C 275.664,46.4763 275.831,53.4763 275,60.5C 273.526,65.9736 270.026,69.4736 264.5,71C 259.833,71.3333 255.167,71.6667 250.5,72C 247.689,75.2935 248.022,78.2935 251.5,81C 256.167,81.3333 260.833,81.6667 265.5,82C 275.411,86.0057 277.911,92.8391 273,102.5C 270.92,104.123 268.754,105.623 266.5,107C 261.833,107.667 257.167,107.667 252.5,107C 244.009,101.407 242.343,94.2404 247.5,85.5C 242.687,79.691 242.354,73.691 246.5,67.5C 242.761,61.7083 241.595,55.3749 243,48.5C 245.106,43.5573 248.606,40.224 253.5,38.5 Z"/></g>
<g><path style="opacity:1" fill="#3a4336" d="M 308.5,88.5 C 307.849,72.1317 308.515,56.1317 310.5,40.5C 311.504,41.6828 312.338,43.0161 313,44.5C 321.333,36.5 329.667,36.5 338,44.5C 338.667,45.8333 339.333,47.1667 340,48.5C 340.5,61.8292 340.667,75.1625 340.5,88.5C 338.5,88.5 336.5,88.5 334.5,88.5C 334.667,75.4957 334.5,62.4957 334,49.5C 331.925,45.4625 328.592,43.7959 324,44.5C 318.763,44.0656 315.429,46.399 314,51.5C 313.5,63.8288 313.333,76.1622 313.5,88.5C 311.833,88.5 310.167,88.5 308.5,88.5 Z"/></g>
<g><path style="opacity:1" fill="#acb1ab" d="M 200.5,40.5 C 198.515,56.1317 197.849,72.1317 198.5,88.5C 197.504,72.3419 197.17,56.0085 197.5,39.5C 198.791,39.2627 199.791,39.596 200.5,40.5 Z"/></g>
<g><path style="opacity:1" fill="#384235" d="M 288.5,39.5 C 290.5,39.5 292.5,39.5 294.5,39.5C 294.5,55.8333 294.5,72.1667 294.5,88.5C 292.5,88.5 290.5,88.5 288.5,88.5C 288.5,72.1667 288.5,55.8333 288.5,39.5 Z"/></g>
<g><path style="opacity:1" fill="#acb1ab" d="M 310.5,40.5 C 308.515,56.1317 307.849,72.1317 308.5,88.5C 307.504,72.3419 307.17,56.0085 307.5,39.5C 308.791,39.2627 309.791,39.596 310.5,40.5 Z"/></g>
<g><path style="opacity:1" fill="#fafaf9" d="M 253.5,44.5 C 265.484,42.0014 270.984,46.668 270,58.5C 268.148,63.8609 264.315,66.1942 258.5,65.5C 255.139,65.8881 252.306,64.8881 250,62.5C 248.466,58.2891 248.133,53.9558 249,49.5C 250.025,47.313 251.525,45.6464 253.5,44.5 Z"/></g>
<g><path style="opacity:1" fill="#4f26a3" d="M 64.5,107.5 C 59.8068,105.153 55.1401,102.82 50.5,100.5C 54.1422,103.987 58.1422,106.987 62.5,109.5C 35.0226,108.855 20.5226,94.8549 19,67.5C 18.2611,63.9382 16.7611,60.7716 14.5,58C 25.6187,55.811 36.6187,56.4776 47.5,60C 57.7365,64.576 63.9031,72.4093 66,83.5C 66.7608,91.5873 66.2608,99.5873 64.5,107.5 Z"/></g>
<g><path style="opacity:1" fill="#f7f8f7" d="M 254.5,86.5 C 258.637,86.1463 262.637,86.6463 266.5,88C 269.394,90.9087 270.227,94.4087 269,98.5C 264.909,102.305 260.076,103.472 254.5,102C 247.914,96.8397 247.914,91.6731 254.5,86.5 Z"/></g>
<g><path style="opacity:1" fill="#a591d1" d="M 50.5,100.5 C 49.2438,100.539 48.2438,100.039 47.5,99C 48.9976,98.4153 49.9976,98.9153 50.5,100.5 Z"/></g>
<g><path style="opacity:1" fill="#4f27a3" d="M 425.5,102.5 C 425.158,103.338 424.492,103.672 423.5,103.5C 394.074,103.752 365.407,108.585 337.5,118C 312.566,127.533 287.566,136.867 262.5,146C 216.683,157.388 171.35,155.721 126.5,141C 104.44,132.97 83.4401,122.803 63.5,110.5C 63.8333,109.5 64.5,108.833 65.5,108.5C 97.8548,123.171 131.855,130.171 167.5,129.5C 187.28,129.451 206.947,127.951 226.5,125C 272.626,115.812 318.959,107.812 365.5,101C 385.595,98.5922 405.595,99.0922 425.5,102.5 Z"/></g>
<g><path style="opacity:1" fill="#b39dda" d="M 425.5,102.5 C 435.078,104.16 444.744,105.327 454.5,106C 458.869,106.842 463.203,107.842 467.5,109C 441.13,107.669 414.797,112.003 388.5,122C 368.949,130.609 349.282,138.942 329.5,147C 292.923,160.041 255.257,165.374 216.5,163C 242.324,162.302 266.991,156.636 290.5,146C 332.052,122.647 376.386,108.481 423.5,103.5C 424.492,103.672 425.158,103.338 425.5,102.5 Z"/></g>
<g><path style="opacity:1" fill="#d9ceeb" d="M 50.5,100.5 C 55.1401,102.82 59.8068,105.153 64.5,107.5C 65.1667,107.5 65.5,107.833 65.5,108.5C 64.5,108.833 63.8333,109.5 63.5,110.5C 62.8333,110.5 62.5,110.167 62.5,109.5C 58.1422,106.987 54.1422,103.987 50.5,100.5 Z"/></g>
<g><path style="opacity:1" fill="#4f26a3" d="M 47.5,111.5 C 56.3167,110.718 64.3167,112.884 71.5,118C 68.2943,126.478 62.6277,132.478 54.5,136C 47.1892,135.627 39.8558,135.127 32.5,134.5C 33.7657,124.279 38.7657,116.612 47.5,111.5 Z"/></g>
</svg>
