<?xml version="1.0" encoding="UTF-8"?>
<!DOCTYPE svg PUBLIC "-//W3C//DTD SVG 1.1//EN" "http://www.w3.org/Graphics/SVG/1.1/DTD/svg11.dtd">
<svg xmlns="http://www.w3.org/2000/svg" version="1.1" width="476px" height="174px" style="shape-rendering:geometricPrecision; text-rendering:geometricPrecision; image-rendering:optimizeQuality; fill-rule:evenodd; clip-rule:evenodd" xmlns:xlink="http://www.w3.org/1999/xlink">
<g><path style="opacity:1" fill="#fefefe" d="M -0.5,-0.5 C 158.167,-0.5 316.833,-0.5 475.5,-0.5C 475.5,57.5 475.5,115.5 475.5,173.5C 316.833,173.5 158.167,173.5 -0.5,173.5C -0.5,115.5 -0.5,57.5 -0.5,-0.5 Z"/></g>
<g><path style="opacity:1" fill="#777f75" d="M 184.5,23.5 C 173.167,23.5 161.833,23.5 150.5,23.5C 150.5,43.8333 150.5,64.1667 150.5,84.5C 149.503,64.0067 149.169,43.3401 149.5,22.5C 161.345,22.1717 173.012,22.5051 184.5,23.5 Z"/></g>
<g><path style="opacity:1" fill="#394235" d="M 184.5,23.5 C 184.5,25.1667 184.5,26.8333 184.5,28.5C 174.833,28.5 165.167,28.5 155.5,28.5C 155.5,36.1667 155.5,43.8333 155.5,51.5C 163.167,51.5 170.833,51.5 178.5,51.5C 178.5,53.1667 178.5,54.8333 178.5,56.5C 170.833,56.5 163.167,56.5 155.5,56.5C 155.5,64.1667 155.5,71.8333 155.5,79.5C 165.167,79.5 174.833,79.5 184.5,79.5C 184.5,81.1667 184.5,82.8333 184.5,84.5C 173.167,84.5 161.833,84.5 150.5,84.5C 150.5,64.1667 150.5,43.8333 150.5,23.5C 161.833,23.5 173.167,23.5 184.5,23.5 Z"/></g>
<g><path style="opacity:1" fill="#bfc3be" d="M 280.5,23.5 C 278.5,23.5 276.5,23.5 274.5,23.5C 274.5,25.5 274.5,27.5 274.5,29.5C 276.5,29.5 278.5,29.5 280.5,29.5C 278.393,30.4682 276.059,30.8016 273.5,30.5C 273.5,27.8333 273.5,25.1667 273.5,22.5C 276.059,22.1984 278.393,22.5318 280.5,23.5 Z"/></g>
<g><path style="opacity:1" fill="#343e30" d="M 280.5,23.5 C 280.5,25.5 280.5,27.5 280.5,29.5C 278.5,29.5 276.5,29.5 274.5,29.5C 274.5,27.5 274.5,25.5 274.5,23.5C 276.5,23.5 278.5,23.5 280.5,23.5 Z"/></g>
<g><path style="opacity:1" fill="#374133" d="M 204.5,39.5 C 212.65,38.2567 218.483,41.2567 222,48.5C 222.5,60.4954 222.667,72.4954 222.5,84.5C 220.833,84.5 219.167,84.5 217.5,84.5C 217.667,72.8286 217.5,61.1619 217,49.5C 213.702,44.7795 209.202,43.2795 203.5,45C 201.667,46.1667 200.167,47.6667 199,49.5C 198.5,61.1619 198.333,72.8286 198.5,84.5C 196.833,84.5 195.167,84.5 193.5,84.5C 193.167,69.8182 193.501,55.1515 194.5,40.5C 195.48,41.9814 196.647,43.3147 198,44.5C 200.326,42.9343 202.492,41.2676 204.5,39.5 Z"/></g>
<g><path style="opacity:1" fill="#3e483b" d="M 242.5,39.5 C 248.728,38.4441 254.061,40.1108 258.5,44.5C 259.5,42.8333 260.833,41.5 262.5,40.5C 263.664,46.8072 263.831,53.1405 263,59.5C 261.5,63.6667 258.667,66.5 254.5,68C 249.833,68.3333 245.167,68.6667 240.5,69C 237.833,71.6667 237.833,74.3333 240.5,77C 244.833,77.3333 249.167,77.6667 253.5,78C 262.215,81.6011 264.715,87.7678 261,96.5C 252.335,104.793 244.002,104.459 236,95.5C 233.724,90.663 234.224,86.163 237.5,82C 235.628,79.254 234.294,76.254 233.5,73C 233.795,70.0766 235.129,67.7432 237.5,66C 235.959,64.4207 234.792,62.5873 234,60.5C 231.056,50.911 233.89,43.911 242.5,39.5 Z"/></g>
<g><path style="opacity:1" fill="#384234" d="M 304.5,39.5 C 311.789,38.6435 317.289,41.3102 321,47.5C 321.5,59.8288 321.667,72.1622 321.5,84.5C 319.833,84.5 318.167,84.5 316.5,84.5C 316.667,72.8286 316.5,61.1619 316,49.5C 313.972,45.8663 310.806,44.1997 306.5,44.5C 302.846,44.6313 300.013,46.298 298,49.5C 297.5,61.1619 297.333,72.8286 297.5,84.5C 295.833,84.5 294.167,84.5 292.5,84.5C 292.167,69.8182 292.501,55.1515 293.5,40.5C 294.833,41.8333 296.167,43.1667 297.5,44.5C 299.618,42.3583 301.952,40.6917 304.5,39.5 Z"/></g>
<g><path style="opacity:1" fill="#485144" d="M 274.5,40.5 C 276.5,40.5 278.5,40.5 280.5,40.5C 280.5,55.1667 280.5,69.8333 280.5,84.5C 278.5,84.5 276.5,84.5 274.5,84.5C 274.5,69.8333 274.5,55.1667 274.5,40.5 Z"/></g>
<g><path style="opacity:1" fill="#fafbfa" d="M 243.5,44.5 C 257.16,43.664 261.16,49.4973 255.5,62C 242.424,66.5838 236.924,62.0838 239,48.5C 240.397,46.9297 241.897,45.5964 243.5,44.5 Z"/></g>
<g><path style="opacity:1" fill="#327bcf" d="M 66.5,101.5 C 63.5292,98.851 60.1958,97.0177 56.5,96C 59.3785,98.3852 62.3785,100.552 65.5,102.5C 66.1667,102.833 66.8333,103.167 67.5,103.5C 66.4324,104.434 65.099,104.768 63.5,104.5C 53.1448,104.405 44.6448,100.405 38,92.5C 36.4138,90.3295 35.0804,87.9962 34,85.5C 32.4517,78.8772 31.1184,72.2105 30,65.5C 29.4837,62.9664 28.317,60.7998 26.5,59C 61.5489,53.2134 76.8823,68.0467 72.5,103.5C 70.2972,103.396 68.2972,102.73 66.5,101.5 Z"/></g>
<g><path style="opacity:1" fill="#f4f4f4" d="M 244.5,82.5 C 249.39,81.7841 253.556,83.1174 257,86.5C 257.898,95.5856 253.732,99.0856 244.5,97C 237.866,92.0351 237.866,87.2017 244.5,82.5 Z"/></g>
<g><path style="opacity:1" fill="#347ccf" d="M 394.5,98.5 C 389.167,99.1667 383.833,99.8333 378.5,100.5C 360.102,101.955 342.102,105.455 324.5,111C 304.726,117.222 285.393,124.556 266.5,133C 223.952,148.085 180.952,149.418 137.5,137C 125.402,133.417 113.735,129.084 102.5,124C 92.1212,118.147 81.7879,112.313 71.5,106.5C 71.5,105.833 71.5,105.167 71.5,104.5C 116.913,122.736 163.913,127.903 212.5,120C 257.933,110.928 303.599,103.261 349.5,97C 364.611,94.7536 379.611,95.2536 394.5,98.5 Z"/></g>
<g><path style="opacity:1" fill="#abc8eb" d="M 66.5,101.5 C 65.8333,101.5 65.5,101.833 65.5,102.5C 62.3785,100.552 59.3785,98.3852 56.5,96C 60.1958,97.0177 63.5292,98.851 66.5,101.5 Z"/></g>
<g><path style="opacity:1" fill="#92bbe6" d="M 394.5,98.5 C 396.582,98.472 398.416,99.1387 400,100.5C 410.138,100.119 420.305,101.286 430.5,104C 403.407,104.685 377.407,110.352 352.5,121C 308.083,144.605 260.749,155.605 210.5,154C 226.806,152.726 242.806,149.726 258.5,145C 279.382,135.392 300.382,126.059 321.5,117C 343.127,108.677 365.46,103.343 388.5,101C 385.183,100.502 381.85,100.335 378.5,100.5C 383.833,99.8333 389.167,99.1667 394.5,98.5 Z"/></g>
<g><path style="opacity:1" fill="#99bde7" d="M 67.5,103.5 C 68.7079,104.234 70.0413,104.567 71.5,104.5C 71.5,105.167 71.5,105.833 71.5,106.5C 68.7196,105.922 66.0529,105.255 63.5,104.5C 65.099,104.768 66.4324,104.434 67.5,103.5 Z"/></g>
<g><path style="opacity:1" fill="#327bcf" d="M 51.5,128.5 C 48.5,127.833 45.5,127.167 42.5,126.5C 47.9054,106.965 59.572,101.965 77.5,111.5C 74.0169,125.344 65.3503,131.011 51.5,128.5 Z"/></g>
<g><path style="opacity:1" fill="#a2c2e9" d="M 42.5,126.5 C 45.5,127.167 48.5,127.833 51.5,128.5C 48.1016,128.82 44.7683,128.487 41.5,127.5C 41.6236,126.893 41.9569,126.56 42.5,126.5 Z"/></g>
</svg>
